<svg version="1.1" width="406.000000" height="406.000000" xmlns="http://www.w3.org/2000/svg">
<line x1="50.000000" y1="2.000000" x2="25.000000" y2="52.000000" stroke="black" />
<line x1="25.000000" y1="52.000000" x2="12.500000" y2="102.000000" stroke="black" />
<line x1="12.500000" y1="102.000000" x2="4.166667" y2="152.000000" stroke="black" />
<line x1="12.500000" y1="102.000000" x2="20.833333" y2="152.000000" stroke="black" />
<line x1="25.000000" y1="52.000000" x2="37.500000" y2="102.000000" stroke="black" />
<line x1="37.500000" y1="102.000000" x2="29.166667" y2="152.000000" stroke="black" />
<line x1="50.000000" y1="2.000000" x2="75.000000" y2="52.000000" stroke="black" />
<line x1="75.000000" y1="52.000000" x2="62.500000" y2="102.000000" stroke="black" />
<line x1="62.500000" y1="102.000000" x2="54.166667" y2="152.000000" stroke="black" />
<line x1="62.500000" y1="102.000000" x2="70.833333" y2="152.000000" stroke="black" />
<line x1="70.833333" y1="152.000000" x2="64.583333" y2="202.000000" stroke="black" />
<line x1="70.833333" y1="152.000000" x2="77.083333" y2="202.000000" stroke="black" />
<line x1="75.000000" y1="52.000000" x2="87.500000" y2="102.000000" stroke="black" />
<circle cx="4.166667" cy="152.000000" r="4.000000" fill="black" />
<circle cx="20.833333" cy="152.000000" r="4.000000" fill="black" />
<circle cx="12.500000" cy="102.000000" r="4.000000" fill="black" />
<circle cx="29.166667" cy="152.000000" r="4.000000" fill="black" />
<circle cx="37.500000" cy="102.000000" r="4.000000" fill="black" />
<circle cx="25.000000" cy="52.000000" r="4.000000" fill="black" />
<circle cx="54.166667" cy="152.000000" r="4.000000" fill="black" />
<circle cx="64.583333" cy="202.000000" r="4.000000" fill="black" />
<circle cx="77.083333" cy="202.000000" r="4.000000" fill="black" />
<circle cx="70.833333" cy="152.000000" r="4.000000" fill="black" />
<circle cx="62.500000" cy="102.000000" r="4.000000" fill="black" />
<circle cx="87.500000" cy="102.000000" r="4.000000" fill="black" />
<circle cx="75.000000" cy="52.000000" r="4.000000" fill="black" />
<circle cx="50.000000" cy="2.000000" r="4.000000" fill="black" />
</svg>