<svg version="1.1" width="20.000000" height="20.000000" xmlns="http://www.w3.org/2000/svg">
<line x1="0.000000" y1="0.000000" x2="-25.000000" y2="50.000000" stroke="black" />
<line x1="-25.000000" y1="50.000000" x2="-50.000000" y2="100.000000" stroke="black" />
<line x1="-50.000000" y1="100.000000" x2="-75.000000" y2="150.000000" stroke="black" />
<line x1="-50.000000" y1="100.000000" x2="-25.000000" y2="150.000000" stroke="black" />
<line x1="-25.000000" y1="50.000000" x2="0.000000" y2="100.000000" stroke="black" />
<line x1="0.000000" y1="100.000000" x2="-25.000000" y2="150.000000" stroke="black" />
<line x1="0.000000" y1="0.000000" x2="25.000000" y2="50.000000" stroke="black" />
<line x1="25.000000" y1="50.000000" x2="0.000000" y2="100.000000" stroke="black" />
<line x1="0.000000" y1="100.000000" x2="-25.000000" y2="150.000000" stroke="black" />
<line x1="0.000000" y1="100.000000" x2="25.000000" y2="150.000000" stroke="black" />
<line x1="25.000000" y1="150.000000" x2="0.000000" y2="200.000000" stroke="black" />
<line x1="25.000000" y1="150.000000" x2="50.000000" y2="200.000000" stroke="black" />
<line x1="25.000000" y1="50.000000" x2="50.000000" y2="100.000000" stroke="black" />
<circle cx="-75.000000" cy="150.000000" r="4.000000" fill="black" />
<circle cx="-25.000000" cy="150.000000" r="4.000000" fill="black" />
<circle cx="-50.000000" cy="100.000000" r="4.000000" fill="black" />
<circle cx="-25.000000" cy="150.000000" r="4.000000" fill="black" />
<circle cx="0.000000" cy="100.000000" r="4.000000" fill="black" />
<circle cx="-25.000000" cy="50.000000" r="4.000000" fill="black" />
<circle cx="-25.000000" cy="150.000000" r="4.000000" fill="black" />
<circle cx="0.000000" cy="200.000000" r="4.000000" fill="black" />
<circle cx="50.000000" cy="200.000000" r="4.000000" fill="black" />
<circle cx="25.000000" cy="150.000000" r="4.000000" fill="black" />
<circle cx="0.000000" cy="100.000000" r="4.000000" fill="black" />
<circle cx="50.000000" cy="100.000000" r="4.000000" fill="black" />
<circle cx="25.000000" cy="50.000000" r="4.000000" fill="black" />
<circle cx="0.000000" cy="0.000000" r="4.000000" fill="black" />
</svg>